HIERARCHY
ROOT hip
{
  OFFSET 88.5616 82.3979 180.613
  CHANNELS 6 Xposition Yposition Zposition Zrotation Xrotation Yrotation
  JOINT abdomen
  {
    OFFSET 0 20.6881 -0.73152
    CHANNELS 3 Zrotation Xrotation Yrotation
    JOINT chest
    {
      OFFSET 0 11.7043 -0.48768
      CHANNELS 3 Zrotation Xrotation Yrotation
      JOINT neck
      {
        OFFSET 0 22.1894 -2.19456
        CHANNELS 3 Zrotation Xrotation Yrotation
        JOINT head
        {
          OFFSET -0.24384 7.07133 1.2192
          CHANNELS 3 Zrotation Xrotation Yrotation
          JOINT leftEye
          {
            OFFSET 4.14528 8.04674 8.04672
            CHANNELS 3 Zrotation Xrotation Yrotation
            End Site
            {
              OFFSET 1 0 0
            }
          }
          JOINT rightEye
          {
            OFFSET -3.6576 8.04674 8.04672
            CHANNELS 3 Zrotation Xrotation Yrotation
            End Site
            {
              OFFSET 1 0 0
            }
          }
        }
      }
      JOINT rCollar
      {
        OFFSET -2.68224 19.2634 -4.8768
        CHANNELS 3 Zrotation Xrotation Yrotation
        JOINT rShldr
        {
          OFFSET -8.77824 -1.95073 1.46304
          CHANNELS 3 Zrotation Xrotation Yrotation
          JOINT rForeArm
          {
            OFFSET -28.1742 -1.7115 0.48768
            CHANNELS 3 Zrotation Xrotation Yrotation
            JOINT rHand
            {
              OFFSET -22.5879 0.773209 7.07136
              CHANNELS 3 Zrotation Xrotation Yrotation
              JOINT rThumb1
              {
                OFFSET -1.2192 -0.487915 3.41376
                CHANNELS 3 Zrotation Xrotation Yrotation
                JOINT rThumb2
                {
                  OFFSET -3.37035 -0.52449 3.41376
                  CHANNELS 3 Zrotation Xrotation Yrotation
                  End Site
                  {
                    OFFSET -1.78271 -1.18214 1.43049
                  }
                }
              }
              JOINT rIndex1
              {
                OFFSET -7.75947 0.938293 5.60832
                CHANNELS 3 Zrotation Xrotation Yrotation
                JOINT rIndex2
                {
                  OFFSET -2.54057 -0.884171 1.56538
                  CHANNELS 3 Zrotation Xrotation Yrotation
                  End Site
                  {
                    OFFSET -1.62519 -0.234802 1.16502
                  }
                }
              }
              JOINT rMid1
              {
                OFFSET -8.24714 1.18213 3.41376
                CHANNELS 3 Zrotation Xrotation Yrotation
                JOINT rMid2
                {
                  OFFSET -3.10165 -0.590103 1.0647
                  CHANNELS 3 Zrotation Xrotation Yrotation
                  End Site
                  {
                    OFFSET -2.48547 -0.328903 0.83742
                  }
                }
              }
              JOINT rRing1
              {
                OFFSET -8.82822 0.546677 1.51678
                CHANNELS 3 Zrotation Xrotation Yrotation
                JOINT rRing2
                {
                  OFFSET -2.60934 -0.819778 -0.0198488
                  CHANNELS 3 Zrotation Xrotation Yrotation
                  End Site
                  {
                    OFFSET -2.33842 -0.294052 0.168128
                  }
                }
              }
              JOINT rPinky1
              {
                OFFSET -8.27202 -0.0477905 -0.4584
                CHANNELS 3 Zrotation Xrotation Yrotation
                JOINT rPinky2
                {
                  OFFSET -1.82734 -0.647385 -0.700984
                  CHANNELS 3 Zrotation Xrotation Yrotation
                  End Site
                  {
                    OFFSET -1.69225 -0.51767 -0.607171
                  }
                }
              }
            }
          }
        }
      }
      JOINT lCollar
      {
        OFFSET 2.68224 19.2634 -4.8768
        CHANNELS 3 Zrotation Xrotation Yrotation
        JOINT lShldr
        {
          OFFSET 8.77824 -1.95073 1.46304
          CHANNELS 3 Zrotation Xrotation Yrotation
          JOINT lForeArm
          {
            OFFSET 28.1742 -1.7115 0.48768
            CHANNELS 3 Zrotation Xrotation Yrotation
            JOINT lHand
            {
              OFFSET 22.5879 0.773209 7.07136
              CHANNELS 3 Zrotation Xrotation Yrotation
              JOINT lThumb1
              {
                OFFSET 1.2192 -0.487915 3.41376
                CHANNELS 3 Zrotation Xrotation Yrotation
                JOINT lThumb2
                {
                  OFFSET 3.37035 -0.52449 3.41376
                  CHANNELS 3 Zrotation Xrotation Yrotation
                  End Site
                  {
                    OFFSET 1.78271 -1.18214 1.43049
                  }
                }
              }
              JOINT lIndex1
              {
                OFFSET 7.75947 0.938293 5.60832
                CHANNELS 3 Zrotation Xrotation Yrotation
                JOINT lIndex2
                {
                  OFFSET 2.54057 -0.884171 1.56538
                  CHANNELS 3 Zrotation Xrotation Yrotation
                  End Site
                  {
                    OFFSET 1.62519 -0.234802 1.16502
                  }
                }
              }
              JOINT lMid1
              {
                OFFSET 8.24714 1.18213 3.41376
                CHANNELS 3 Zrotation Xrotation Yrotation
                JOINT lMid2
                {
                  OFFSET 3.10165 -0.590103 1.0647
                  CHANNELS 3 Zrotation Xrotation Yrotation
                  End Site
                  {
                    OFFSET 2.48547 -0.328903 0.83742
                  }
                }
              }
              JOINT lRing1
              {
                OFFSET 8.82822 0.546677 1.51678
                CHANNELS 3 Zrotation Xrotation Yrotation
                JOINT lRing2
                {
                  OFFSET 2.60934 -0.819778 -0.0198488
                  CHANNELS 3 Zrotation Xrotation Yrotation
                  End Site
                  {
                    OFFSET 2.33842 -0.294052 0.168128
                  }
                }
              }
              JOINT lPinky1
              {
                OFFSET 8.27202 -0.0477905 -0.4584
                CHANNELS 3 Zrotation Xrotation Yrotation
                JOINT lPinky2
                {
                  OFFSET 1.82734 -0.647385 -0.700984
                  CHANNELS 3 Zrotation Xrotation Yrotation
                  End Site
                  {
                    OFFSET 1.69225 -0.51767 -0.607171
                  }
                }
              }
            }
          }
        }
      }
    }
  }
  JOINT rButtock
  {
    OFFSET -8.77824 4.35084 1.2192
    CHANNELS 3 Zrotation Xrotation Yrotation
    JOINT rThigh
    {
      OFFSET 0 -1.70687 -2.19456
      CHANNELS 3 Zrotation Xrotation Yrotation
      JOINT rShin
      {
        OFFSET 0 -36.8199 0.73152
        CHANNELS 3 Zrotation Xrotation Yrotation
        JOINT rFoot
        {
          OFFSET 0.73152 -45.1104 -5.12064
          CHANNELS 3 Zrotation Xrotation Yrotation
          End Site
          {
            OFFSET -1.1221 -3.69964 12.103
          }
        }
      }
    }
  }
  JOINT lButtock
  {
    OFFSET 8.77824 4.35084 1.2192
    CHANNELS 3 Zrotation Xrotation Yrotation
    JOINT lThigh
    {
      OFFSET 0 -1.70687 -2.19456
      CHANNELS 3 Zrotation Xrotation Yrotation
      JOINT lShin
      {
        OFFSET 0 -36.8199 0.73152
        CHANNELS 3 Zrotation Xrotation Yrotation
        JOINT lFoot
        {
          OFFSET -0.73152 -45.1104 -5.12064
          CHANNELS 3 Zrotation Xrotation Yrotation
          End Site
          {
            OFFSET 1.1221 -3.69964 12.103
          }
        }
      }
    }
  }
}
MOTION
Frames:	5
Frame Time:	0.00833333
-29.6675 82.288 14.5049 -7.25459 -0.0633991 28.9032 7.24519 3.30119 2.69785 0.764728 -3.96461 0.783288 -9.02204 0.799365 -3.02581 7.76396 1.9421 -3.52912 -0 0 0 -0 0 0 1.77278e-015 -1.39909e-014 2.68173e-014 76.1726 12.6603 0.423842 -15.9718 -8.66171 29.6114 -0.000141879 -0.824048 -0.11581 -5.28988e-010 -4.14667e-010 1.14619e-009 -9.17066e-010 -7.19051e-010 1.98704e-009 -5.28985e-010 -4.14671e-010 1.14618e-009 7.73091 5.47488 0.417314 -5.28989e-010 -4.14666e-010 1.14618e-009 2.90554 0.965183 0.102902 -5.28983e-010 -4.14666e-010 1.14619e-009 10.2786 0.731801 0.0259123 -5.28991e-010 -4.14667e-010 1.1462e-009 2.22167 -0.733487 -0.20892 1.70605e-015 -1.39879e-014 2.64539e-014 -84.2086 -12.244 15.0635 8.08374 -3.05949 -14.2489 0.46602 20.2909 -2.95462 6.97019e-010 -1.13372e-009 6.22538e-010 1.22333e-009 -1.96874e-009 1.0643e-009 6.97016e-010 -1.13372e-009 6.22546e-010 -7.73091 5.47488 -0.417314 6.97017e-010 -1.13373e-009 6.22537e-010 -2.90554 0.965183 -0.102902 6.97011e-010 -1.13373e-009 6.22542e-010 -10.2786 0.731801 -0.0259123 6.97023e-010 -1.13373e-009 6.22535e-010 -2.22167 -0.733487 0.20892 -2.03217e-016 0 -3.88251e-019 4.91107 9.833 5.14135 -0.14515 28.697 0.581567 -0.766538 9.96032 2.16607 2.03217e-016 0 3.88251e-019 0.715893 -40.1412 1.13328 0.216842 30.1144 -0.19592 0.700517 0.314844 3.58275 
-28.7967 82.1658 15.6444 -6.57206 0.0220137 29.516 6.50757 3.54068 2.2713 0.89167 -3.98632 0.647675 -9.15769 0.518684 -3.06842 7.83178 2.06973 -3.54722 -0 0 0 -0 0 0 -3.94253e-014 4.29215e-014 1.52039e-014 76.3952 11.9975 0.183435 -15.8489 -8.54802 29.3531 0.000153646 -0.348355 -0.0489549 -6.60751e-010 -4.66909e-010 1.47802e-009 -1.14623e-009 -8.09213e-010 2.56266e-009 -6.60745e-010 -4.66914e-010 1.47801e-009 7.73091 5.47488 0.417314 -6.6075e-010 -4.66909e-010 1.47801e-009 2.90554 0.965183 0.102902 -6.60744e-010 -4.6691e-010 1.47802e-009 10.2786 0.731801 0.0259123 -6.60756e-010 -4.66912e-010 1.47803e-009 2.22167 -0.733487 -0.20892 -3.95197e-014 4.29226e-014 1.48091e-014 -83.5548 -15.0013 15.2178 7.7855 -2.90276 -13.7062 0.75122 24.4537 -3.64801 6.90516e-010 -1.18945e-009 1.02431e-009 1.2208e-009 -2.06849e-009 1.75629e-009 6.90513e-010 -1.18945e-009 1.02432e-009 -7.73091 5.47488 -0.417314 6.90514e-010 -1.18946e-009 1.0243e-009 -2.90554 0.965183 -0.102902 6.90508e-010 -1.18946e-009 1.02431e-009 -10.2786 0.731801 -0.0259123 6.90518e-010 -1.18946e-009 1.02431e-009 -2.22167 -0.733487 0.20892 -2.03217e-016 0 -3.88251e-019 4.40672 7.93377 5.13419 -0.200416 32.4999 0.609932 -1.11394 13.5734 3.65801 2.03217e-016 0 3.88251e-019 -0.133067 -39.4118 1.50009 0.231363 30.7395 -0.137948 0.626712 0.785676 3.06726 
-27.9294 82.1994 16.7757 -5.89191 0.108992 30.0496 5.7796 3.83424 1.9046 1.03436 -3.96911 0.528281 -9.25796 0.234855 -3.10563 7.83596 2.07726 -3.55642 -0 0 0 -0 0 0 -6.11728e-014 7.91163e-014 1.98785e-016 76.5433 11.5168 -0.00961764 -15.7411 -8.44884 29.1278 -2.78641e-005 -0.150719 -0.0211822 -6.47605e-010 -4.79895e-010 1.52028e-009 -1.12392e-009 -8.31556e-010 2.63626e-009 -6.47599e-010 -4.799e-010 1.52026e-009 7.73091 5.47488 0.417314 -6.47604e-010 -4.79896e-010 1.52027e-009 2.90554 0.965183 0.102902 -6.47597e-010 -4.79897e-010 1.52028e-009 10.2786 0.731801 0.0259123 -6.47613e-010 -4.79899e-010 1.52029e-009 2.22167 -0.733487 -0.20892 -6.12825e-014 7.91165e-014 -1.98785e-016 -83.2813 -16.5572 15.1643 7.6234 -2.8175 -13.4141 0.985086 26.9854 -4.10383 6.49664e-010 -1.09444e-009 1.2511e-009 1.15442e-009 -1.90575e-009 2.14736e-009 6.4966e-010 -1.09445e-009 1.25111e-009 -7.73091 5.47488 -0.417314 6.49662e-010 -1.09445e-009 1.25109e-009 -2.90554 0.965183 -0.102902 6.49656e-010 -1.09445e-009 1.2511e-009 -10.2786 0.731801 -0.0259123 6.49665e-010 -1.09445e-009 1.2511e-009 -2.22167 -0.733487 0.20892 -2.03217e-016 0 -3.88251e-019 3.87857 5.96292 5.03899 -0.263917 36.2623 0.649527 -1.51648 16.7627 4.74418 2.03217e-016 0 3.88251e-019 -0.908596 -38.6823 1.88616 0.244901 31.3581 -0.0853539 0.568477 0.992234 2.4503 
-27.0536 82.2573 17.8601 -5.23882 0.167658 30.4645 5.1157 4.22034 1.63075 1.19437 -3.89045 0.434324 -9.31253 -0.0746316 -3.139 7.726 1.92156 -3.55648 -0 0 0 -0 0 0 -5.15129e-014 8.44549e-014 -4.2036e-014 76.5867 11.2599 -0.152889 -15.6632 -8.37751 28.966 0.000176999 -0.364141 -0.0511733 -3.31056e-010 -4.7065e-010 1.03747e-009 -5.75351e-010 -8.15695e-010 1.79974e-009 -3.3105e-010 -4.70655e-010 1.03745e-009 7.73091 5.47488 0.417314 -3.31055e-010 -4.70652e-010 1.03746e-009 2.90554 0.965183 0.102902 -3.31047e-010 -4.70653e-010 1.03746e-009 10.2786 0.731801 0.0259123 -3.31066e-010 -4.70653e-010 1.03747e-009 2.22167 -0.733487 -0.20892 -5.16174e-014 8.44563e-014 -4.23901e-014 -83.5692 -16.5414 14.7921 7.6524 -2.83152 -13.4678 1.02756 27.2884 -4.16457 5.82297e-010 -6.47056e-010 1.18185e-009 1.0348e-009 -1.13061e-009 2.02864e-009 5.82294e-010 -6.47057e-010 1.18186e-009 -7.73091 5.47488 -0.417314 5.82296e-010 -6.47059e-010 1.18185e-009 -2.90554 0.965183 -0.102902 5.82289e-010 -6.47058e-010 1.18186e-009 -10.2786 0.731801 -0.0259123 5.82298e-010 -6.47059e-010 1.18185e-009 -2.22167 -0.733487 0.20892 -2.03217e-016 0 -3.88251e-019 3.34566 3.88759 4.85492 -0.341533 40.03 0.703734 -1.85037 19.7999 5.23492 2.03217e-016 0 3.88251e-019 -1.53239 -37.9752 2.32436 0.259065 32.0092 -0.0370191 0.514677 0.838978 1.64076 
-26.196 82.248 18.9054 -4.56762 0.205329 30.806 4.44746 4.71112 1.40729 1.38226 -3.76143 0.354087 -9.34847 -0.430003 -3.17138 7.55654 1.64044 -3.54581 -0 0 0 -0 0 0 -2.16506e-014 7.31758e-014 -1.09381e-013 76.5638 11.1474 -0.249961 -15.6033 -8.3229 28.8417 -0.000182512 -0.836717 -0.117592 2.40596e-010 -4.46823e-010 1.55165e-010 4.15483e-010 -7.74626e-010 2.70784e-010 2.40601e-010 -4.46827e-010 1.55151e-010 7.73091 5.47488 0.417314 2.40596e-010 -4.46824e-010 1.55158e-010 2.90554 0.965183 0.102902 2.40604e-010 -4.46825e-010 1.55158e-010 10.2786 0.731801 0.0259123 2.40583e-010 -4.46824e-010 1.5516e-010 2.22167 -0.733487 -0.20892 -2.17387e-014 7.31794e-014 -1.09661e-013 -84.2003 -15.5453 14.1918 7.81178 -2.91366 -13.7576 0.939653 26.2197 -3.97429 5.0224e-010 1.21566e-010 9.17451e-010 8.88311e-010 2.02228e-010 1.57363e-009 5.02237e-010 1.21567e-010 9.17458e-010 -7.73091 5.47488 -0.417314 5.02239e-010 1.21565e-010 9.17447e-010 -2.90554 0.965183 -0.102902 5.02232e-010 1.21565e-010 9.1745e-010 -10.2786 0.731801 -0.0259123 5.0224e-010 1.21565e-010 9.17442e-010 -2.22167 -0.733487 0.20892 -2.03217e-016 0 -3.88251e-019 2.78192 1.66377 4.62569 -0.437503 43.9184 0.77463 -2.07856 22.7858 5.29592 2.03217e-016 0 3.88251e-019 -2.07236 -37.2319 2.82297 0.273472 32.6484 0.0113755 0.450456 0.403294 0.693606 
